<?xml version="1.0" encoding="UTF-8" standalone="no"?>
<svg
   width="512"
   height="512"
   viewBox="0 0 512 512"
   version="1.1"
   id="svg1"
   xmlns="http://www.w3.org/2000/svg"
   xmlns:svg="http://www.w3.org/2000/svg">
  <defs
     id="defs1" />
  <path
     id="rect1"
     style="fill:none"
     d="M 0,0 H 512 V 512 H 0 Z" />
  <g
     id="text1"
     style="font-weight:700;font-size:200px;font-family:Inter, 'Segoe UI', Arial, sans-serif;text-anchor:middle;fill:#111111"
     aria-label="51°N">
    <path
       d="m 37.835937,296.38672 v -26.36719 q 14.355469,8.78906 30.566407,8.78906 12.207031,0 19.042968,-5.76172 6.933594,-5.85937 6.933594,-15.82031 0,-20.80078 -29.394531,-20.80078 -10.839844,0 -25,1.66016 l 5.273437,-78.125 h 74.121098 v 25.19531 H 68.792969 l -1.953125,28.02734 q 7.519531,-0.58593 12.988281,-0.58593 21.582035,0 33.789065,11.32812 12.20703,11.32813 12.20703,30.46875 0,21.19141 -14.55078,34.66797 -14.550784,13.37891 -39.453128,13.37891 -20.214843,0 -33.984375,-6.05469 z M 220.25781,156.83594 V 300 H 189.49609 V 191.60156 q -2.53906,2.2461 -6.05468,4.29688 -3.41797,1.95312 -7.32422,3.61328 -3.90625,1.5625 -8.10547,2.73437 -4.19922,1.07422 -8.30078,1.5625 v -25.97656 q 12.01172,-3.51562 22.65625,-8.98437 10.64453,-5.46875 19.23828,-12.01172 z m 72.75391,55.76172 q -11.6211,0 -19.72656,-8.00782 -8.00782,-8.10547 -8.00782,-19.6289 0,-11.52344 8.00782,-19.4336 8.10546,-7.91015 19.72656,-7.91015 11.52344,0 19.6289,7.91015 8.20313,7.91016 8.20313,19.4336 0,11.52343 -8.20313,19.6289 -8.10546,8.00782 -19.6289,8.00782 z m 0,-40.23438 q -5.27344,0 -8.98438,3.71094 -3.61328,3.61328 -3.61328,8.88672 0,5.27343 3.61328,9.08203 3.71094,3.71094 8.98438,3.71094 5.17578,0 8.88672,-3.71094 3.71093,-3.8086 3.71093,-9.08203 0,-5.27344 -3.71093,-8.88672 -3.61328,-3.71094 -8.88672,-3.71094 z"
       id="path1" />
    <path
       style="fill:#1e5aa8"
       d="m 472.01562,300 h -31.83593 l -57.71485,-87.98828 q -5.07812,-7.71485 -7.03125,-11.6211 h -0.39062 q 0.78125,7.42188 0.78125,22.65625 V 300 H 346.03906 V 159.96094 h 33.98438 l 55.5664,85.2539 q 3.8086,5.76172 7.03125,11.42578 h 0.39063 q -0.78125,-4.88281 -0.78125,-19.23828 v -77.4414 h 29.78515 z"
       id="path2" />
  </g>
</svg>
